# xmcd
#
# Track frame offsets:
#	150
#	12275
#	21885
#	31865
#	45210
#	58855
#	70740
#	82770
#	94322
#	104152
#	117897
#	131977
#	144220
#	156217
#	167165
#	178537
#	190765
#	204137
#	216445
#	226680
#
# Disc length: 3161 seconds
#
# Revision: 0
# Processed by: cddbd v1.4PL0 Copyright (c) Steve Scherf et al.
# Submitted via: dBpowerAMP V4.0
#
DISCID=070c5714
DTITLE=Loretta Lynn - Coal Miner's Daughter
DYEAR=1900
DGENRE=Country
TTITLE0=Success
TTITLE1=Don't Come Home A Drinkin' 
TTITLE2=Fist City
TTITLE3=Woman of the World
TTITLE4=Coal Miner's Daughter
TTITLE5=One's on the Way
TTITLE6=Rated X
TTITLE7=Love is the Foundation
TTITLE8=Trouble in Paradise
TTITLE9=Somebody Somewhere
TTITLE10=She's Got You
TTITLE11=Out of my Head and Back in my Bed
TTITLE12=After the Fire is Gone
TTITLE13=Lead Me On
TTITLE14=Louisiana Woman, Mississipi Man
TTITLE15=As Soon As I Hang Up The Phone
TTITLE16=Feelin's
TTITLE17=Mr And Mrs Used To Be
TTITLE18=You Ain't Woman Enough
TTITLE19=You've Just Stepped In
EXTD=Loretta Lynn  - Coal Miner's Daughter\nPremium Masters
EXTT0=
EXTT1=
EXTT2=
EXTT3=
EXTT4=
EXTT5=
EXTT6=
EXTT7=
EXTT8=
EXTT9=
EXTT10=
EXTT11=
EXTT12=
EXTT13=
EXTT14=
EXTT15=
EXTT16=
EXTT17=
EXTT18=
EXTT19=
PLAYORDER=
